<?xml version="1.0" encoding="UTF-8" standalone="no"?>
<!DOCTYPE svg PUBLIC "-//W3C//DTD SVG 1.1//EN" "http://www.w3.org/Graphics/SVG/1.1/DTD/svg11.dtd">
<svg width="100%" height="100%" viewBox="0 0 10 12" version="1.1" xmlns="http://www.w3.org/2000/svg" xmlns:xlink="http://www.w3.org/1999/xlink" xml:space="preserve" xmlns:serif="http://www.serif.com/" style="fill-rule:evenodd;clip-rule:evenodd;stroke-linecap:round;stroke-linejoin:round;stroke-miterlimit:1.5;">
    <g transform="matrix(1,0,0,1,-112,-368)">
        <g>
            <g>
                <g>
                    <path d="M112.754,378.002L112.754,369.467C112.754,369.278 112.829,369.097 112.963,368.963C113.096,368.83 113.277,368.755 113.466,368.755L114.566,368.755L114.566,368.758C115.782,368.755 117.354,368.755 118.443,368.755C118.563,368.755 118.665,368.84 118.687,368.958C118.723,369.158 118.824,369.343 118.974,369.489C119.126,369.635 119.318,369.734 119.525,369.773C119.642,369.793 119.727,369.894 119.727,370.012C119.732,371.924 119.732,375.544 119.732,377.456C119.732,377.576 119.645,377.679 119.526,377.699C119.318,377.734 119.126,377.833 118.974,377.979C118.824,378.125 118.723,378.31 118.681,378.509C118.66,378.624 118.56,378.708 118.443,378.708C117.354,378.713 115.782,378.713 114.566,378.713L113.466,378.713C113.277,378.713 113.096,378.638 112.963,378.505C112.829,378.371 112.754,378.19 112.754,378.002Z" style="fill:rgb(117,117,117);"/>
                    <path d="M119.732,368.755L119.732,378.713" style="fill:none;stroke:white;stroke-width:0.36px;stroke-dasharray:0.83,0.8,0,0,0,0;stroke-dashoffset:0.36;"/>
                </g>
                <path d="M117.926,373.737C117.952,373.752 117.967,373.78 117.967,373.809C117.967,373.839 117.952,373.866 117.926,373.882C117.45,374.169 115.698,375.225 115.207,375.521C115.181,375.536 115.148,375.537 115.122,375.522C115.095,375.507 115.079,375.479 115.079,375.448L115.079,372.171C115.079,372.14 115.095,372.112 115.122,372.097C115.148,372.082 115.181,372.082 115.207,372.098C115.698,372.394 117.45,373.45 117.926,373.737Z" style="fill:white;"/>
            </g>
            <g>
                <path d="M121.983,379.425L121.374,379.425C121.275,379.425 121.191,379.352 121.176,379.254C121.144,379.046 121.045,378.853 120.894,378.702C120.743,378.551 120.55,378.452 120.343,378.417C120.246,378.403 120.175,378.32 120.175,378.223C120.171,377.175 120.171,371.865 120.171,370.817C120.172,370.718 120.244,370.634 120.342,370.62C120.55,370.587 120.743,370.489 120.894,370.338C121.045,370.187 121.144,369.994 121.179,369.786C121.194,369.69 121.276,369.619 121.374,369.619C121.606,369.615 121.983,369.615 121.983,369.615L121.983,379.425Z" style="fill:rgb(117,117,117);"/>
                <path d="M120.171,379.425L120.171,369.615" style="fill:none;stroke:white;stroke-width:0.29px;stroke-dasharray:0.67,0.65,0,0,0,0;stroke-dashoffset:0.29;"/>
            </g>
        </g>
    </g>
</svg>
