<?xml version="1.0" encoding="UTF-8" standalone="no"?>
<!DOCTYPE svg PUBLIC "-//W3C//DTD SVG 1.1//EN" "http://www.w3.org/Graphics/SVG/1.1/DTD/svg11.dtd">
<svg width="100%" height="100%" viewBox="0 0 19 23" version="1.1" xmlns="http://www.w3.org/2000/svg" xmlns:xlink="http://www.w3.org/1999/xlink" xml:space="preserve" xmlns:serif="http://www.serif.com/" style="fill-rule:evenodd;clip-rule:evenodd;stroke-linecap:round;stroke-linejoin:round;stroke-miterlimit:1.5;">
    <g transform="matrix(1,0,0,1,-2147,-737)">
        <g transform="matrix(0.333333,0,0,0.333333,1922.26,-1.28449)">
            <g>
                <g>
                    <g transform="matrix(0.111637,0,0,0.0735843,674.756,2216.38)">
                        <path d="M-0,753.969L-0,58.031C-0,42.64 4.03,27.88 11.203,16.997C18.377,6.114 28.106,-0 38.251,-0L97.354,-0L97.354,0.295C162.701,-0 247.219,0 305.755,0C312.172,0.008 317.669,6.967 318.825,16.543C320.759,32.872 326.194,47.94 334.287,59.833C342.428,71.798 352.757,79.81 363.892,83.027C370.154,84.647 374.733,92.88 374.733,102.516C375,258.453 375,553.547 375,709.484C374.988,719.305 370.315,727.687 363.933,729.335C352.757,732.19 342.428,740.202 334.287,752.167C326.194,764.06 320.759,779.128 318.544,795.379C317.413,804.746 312.032,811.55 305.755,811.55C247.219,811.941 162.701,811.993 97.354,811.999L69.245,812L38.251,812C28.106,812 18.377,805.886 11.203,795.003C4.03,784.12 -0,769.36 -0,753.969Z" style="fill:url(#_Linear1);"/>
                    </g>
                    <g transform="matrix(3.14383,0,0,3.04537,-30.9601,-33.9864)">
                        <path d="M237.793,738.948L237.793,758.568" style="fill:none;stroke:white;stroke-width:0.69px;stroke-dasharray:1.6,1.54,0,0,0,0;stroke-dashoffset:0.69;"/>
                    </g>
                </g>
                <g transform="matrix(1.50383e-16,2.37902,-1.97368,1.17068e-16,2174.87,1734.84)">
                    <path d="M214.979,744.335C215.017,744.258 215.087,744.211 215.161,744.211C215.236,744.211 215.306,744.258 215.344,744.335C216.068,745.784 218.732,751.111 219.477,752.602C219.517,752.681 219.518,752.78 219.48,752.861C219.443,752.942 219.372,752.992 219.295,752.992C217.825,752.992 212.498,752.992 211.028,752.992C210.951,752.992 210.88,752.942 210.842,752.861C210.805,752.78 210.806,752.681 210.846,752.602C211.591,751.111 214.255,745.784 214.979,744.335Z" style="fill:white;"/>
                </g>
            </g>
            <g transform="matrix(-1,-2.498e-16,2.498e-16,-1,1432.64,4497.25)">
                <g transform="matrix(0.106529,0,0,0.0724881,673.43,2216.84)">
                    <path d="M272.978,-0C272.978,-0 294.178,-0 307.294,-0C312.87,0.017 317.598,6.026 318.414,14.133C320.222,31.355 325.789,47.345 334.287,59.833C342.784,72.321 353.664,80.503 365.357,83.422C370.78,84.603 374.797,91.444 374.797,99.501C375,186.253 375,625.747 375,712.499C374.988,720.693 370.899,727.642 365.383,728.841C353.664,731.497 342.784,739.679 334.287,752.167C325.789,764.655 320.222,780.645 318.236,797.829C317.432,805.799 312.777,811.701 307.294,811.701C294.178,812 272.978,812 272.978,812L272.978,-0Z" style="fill:url(#_Linear2);"/>
                </g>
                <g transform="matrix(3,0,0,3,0,1.44382e-11)">
                    <path d="M237.793,738.948L237.793,758.568" style="fill:none;stroke:white;stroke-width:0.58px;stroke-dasharray:1.34,1.29,0,0,0,0;stroke-dashoffset:0.58;"/>
                </g>
            </g>
        </g>
    </g>
    <defs>
        <linearGradient id="_Linear1" x1="0" y1="0" x2="1" y2="0" gradientUnits="userSpaceOnUse" gradientTransform="matrix(495.984,0,0,3860.6,-1.53523e-09,271.614)"><stop offset="0" style="stop-color:rgb(255,84,175);stop-opacity:1"/><stop offset="0.5" style="stop-color:rgb(255,90,85);stop-opacity:1"/><stop offset="1" style="stop-color:rgb(255,154,11);stop-opacity:1"/></linearGradient>
        <linearGradient id="_Linear2" x1="0" y1="0" x2="1" y2="0" gradientUnits="userSpaceOnUse" gradientTransform="matrix(-519.763,1.9081e-13,-6.66137e-13,-3918.98,792.742,607.471)"><stop offset="0" style="stop-color:rgb(255,84,175);stop-opacity:1"/><stop offset="0.5" style="stop-color:rgb(255,90,85);stop-opacity:1"/><stop offset="1" style="stop-color:rgb(255,154,11);stop-opacity:1"/></linearGradient>
    </defs>
</svg>
