<?xml version="1.0" encoding="UTF-8" standalone="no"?>
<!DOCTYPE svg PUBLIC "-//W3C//DTD SVG 1.1//EN" "http://www.w3.org/Graphics/SVG/1.1/DTD/svg11.dtd">
<svg width="100%" height="100%" viewBox="0 0 12 11" version="1.1" xmlns="http://www.w3.org/2000/svg" xmlns:xlink="http://www.w3.org/1999/xlink" xml:space="preserve" xmlns:serif="http://www.serif.com/" style="fill-rule:evenodd;clip-rule:evenodd;stroke-linejoin:round;stroke-miterlimit:2;">
    <g transform="matrix(1,0,0,1,-18,-368)">
        <path d="M19.779,374.273L18.68,374.273C18.542,374.273 18.419,374.188 18.369,374.06C18.319,373.932 18.353,373.786 18.455,373.693L23.775,368.842C23.902,368.726 24.097,368.726 24.224,368.842L29.544,373.693C29.646,373.786 29.68,373.932 29.631,374.06C29.581,374.188 29.457,374.273 29.32,374.273L28.22,374.273L28.22,377.376C28.22,377.923 27.776,378.367 27.229,378.367L24.969,378.367L24.969,376.091C24.969,375.824 24.752,375.607 24.484,375.607L23.515,375.607C23.248,375.607 23.031,375.824 23.031,376.091L23.031,378.367L20.77,378.367C20.223,378.367 19.779,377.923 19.779,377.376L19.779,374.273Z" style="fill:rgb(117,117,117);"/>
    </g>
</svg>
