<?xml version="1.0" encoding="UTF-8" standalone="no"?>
<!DOCTYPE svg PUBLIC "-//W3C//DTD SVG 1.1//EN" "http://www.w3.org/Graphics/SVG/1.1/DTD/svg11.dtd">
<svg width="100%" height="100%" viewBox="0 0 14 10" version="1.1" xmlns="http://www.w3.org/2000/svg" xmlns:xlink="http://www.w3.org/1999/xlink" xml:space="preserve" xmlns:serif="http://www.serif.com/" style="fill-rule:evenodd;clip-rule:evenodd;stroke-linecap:round;stroke-linejoin:round;stroke-miterlimit:1.5;">
    <g transform="matrix(1,0,0,1,-499,-368)">
        <g>
            <path d="M510.914,368.845C511.19,368.795 511.454,368.979 511.504,369.255C511.689,370.276 512.106,372.587 512.291,373.608C512.341,373.884 512.157,374.149 511.881,374.198C510.104,374.519 504.107,375.603 502.329,375.924C502.053,375.974 501.789,375.79 501.739,375.514C501.555,374.494 501.137,372.182 500.952,371.161C500.903,370.885 501.086,370.621 501.362,370.571C503.139,370.25 509.137,369.166 510.914,368.845Z" style="fill:url(#_Linear1);"/>
            <path d="M510.846,368.472C511.329,368.385 511.79,368.705 511.878,369.188L512.664,373.54C512.751,374.023 512.431,374.485 511.948,374.572L502.397,376.297C501.914,376.384 501.453,376.064 501.366,375.582L500.579,371.229C500.492,370.746 500.812,370.285 501.295,370.197L510.846,368.472ZM510.914,368.845L501.362,370.571C501.086,370.621 500.903,370.885 500.952,371.161L501.739,375.514C501.789,375.79 502.053,375.974 502.329,375.924L511.881,374.198C512.157,374.149 512.341,373.884 512.291,373.608L511.504,369.255C511.454,368.979 511.19,368.795 510.914,368.845Z" style="fill:white;"/>
            <path d="M510.584,371.822C510.865,371.822 511.092,372.05 511.092,372.33L511.092,377.05C511.092,377.331 510.865,377.558 510.584,377.558L500.294,377.558C500.013,377.558 499.786,377.331 499.786,377.05L499.786,372.33C499.786,372.05 500.013,371.822 500.294,371.822L510.584,371.822Z" style="fill:url(#_Linear2);"/>
            <path d="M510.584,371.422C511.086,371.422 511.492,371.829 511.492,372.33L511.492,377.05C511.492,377.552 511.086,377.958 510.584,377.958L500.294,377.958C499.792,377.958 499.386,377.552 499.386,377.05L499.386,372.33C499.386,371.829 499.792,371.422 500.294,371.422L510.584,371.422ZM510.584,371.822L500.294,371.822C500.013,371.822 499.786,372.05 499.786,372.33L499.786,377.05C499.786,377.331 500.013,377.558 500.294,377.558L510.584,377.558C510.865,377.558 511.092,377.331 511.092,377.05L511.092,372.33C511.092,372.05 510.865,371.822 510.584,371.822Z" style="fill:white;"/>
            <path d="M502.059,372.315L502.059,377.065" style="fill:none;stroke:white;stroke-width:0.2px;"/>
        </g>
    </g>
    <defs>
        <linearGradient id="_Linear1" x1="0" y1="0" x2="1" y2="0" gradientUnits="userSpaceOnUse" gradientTransform="matrix(10.5518,-1.9063,1.9063,10.5518,501.346,373.338)"><stop offset="0" style="stop-color:rgb(255,84,175);stop-opacity:1"/><stop offset="0.5" style="stop-color:rgb(255,90,85);stop-opacity:1"/><stop offset="1" style="stop-color:rgb(255,154,11);stop-opacity:1"/></linearGradient>
        <linearGradient id="_Linear2" x1="0" y1="0" x2="1" y2="0" gradientUnits="userSpaceOnUse" gradientTransform="matrix(11.3067,0,0,11.3067,499.786,374.69)"><stop offset="0" style="stop-color:rgb(255,84,175);stop-opacity:1"/><stop offset="0.5" style="stop-color:rgb(255,90,85);stop-opacity:1"/><stop offset="1" style="stop-color:rgb(255,154,11);stop-opacity:1"/></linearGradient>
    </defs>
</svg>
