<?xml version="1.0" encoding="UTF-8" standalone="no"?>
<!DOCTYPE svg PUBLIC "-//W3C//DTD SVG 1.1//EN" "http://www.w3.org/Graphics/SVG/1.1/DTD/svg11.dtd">
<svg width="100%" height="100%" viewBox="0 0 14 10" version="1.1" xmlns="http://www.w3.org/2000/svg" xmlns:xlink="http://www.w3.org/1999/xlink" xml:space="preserve" xmlns:serif="http://www.serif.com/" style="fill-rule:evenodd;clip-rule:evenodd;stroke-linecap:round;stroke-linejoin:round;stroke-miterlimit:1.5;">
    <g transform="matrix(1,0,0,1,-64,-368)">
        <g>
            <path d="M75.705,368.845C75.981,368.795 76.246,368.979 76.296,369.255C76.48,370.276 76.898,372.587 77.082,373.608C77.132,373.884 76.948,374.149 76.672,374.198C74.895,374.519 68.898,375.603 67.121,375.924C66.844,375.974 66.58,375.79 66.53,375.514C66.346,374.494 65.928,372.182 65.744,371.161C65.694,370.885 65.877,370.621 66.154,370.571C67.931,370.25 73.928,369.166 75.705,368.845Z" style="fill:rgb(117,117,117);"/>
            <path d="M75.638,368.472C76.12,368.385 76.582,368.705 76.669,369.188L77.455,373.54C77.542,374.023 77.222,374.485 76.74,374.572L67.188,376.297C66.706,376.384 66.244,376.064 66.157,375.582L65.37,371.229C65.283,370.746 65.604,370.285 66.086,370.197L75.638,368.472ZM75.705,368.845L66.154,370.571C65.877,370.621 65.694,370.885 65.744,371.161L66.53,375.514C66.58,375.79 66.844,375.974 67.121,375.924L76.672,374.198C76.948,374.149 77.132,373.884 77.082,373.608L76.296,369.255C76.246,368.979 75.981,368.795 75.705,368.845Z" style="fill:white;"/>
            <path d="M75.375,371.822C75.656,371.822 75.884,372.05 75.884,372.33L75.884,377.05C75.884,377.331 75.656,377.558 75.375,377.558L65.085,377.558C64.805,377.558 64.577,377.331 64.577,377.05L64.577,372.33C64.577,372.05 64.805,371.822 65.085,371.822L75.375,371.822Z" style="fill:rgb(117,117,117);"/>
            <path d="M75.375,371.422C75.877,371.422 76.284,371.829 76.284,372.33L76.284,377.05C76.284,377.552 75.877,377.958 75.375,377.958L65.085,377.958C64.584,377.958 64.177,377.552 64.177,377.05L64.177,372.33C64.177,371.829 64.584,371.422 65.085,371.422L75.375,371.422ZM75.375,371.822L65.085,371.822C64.805,371.822 64.577,372.05 64.577,372.33L64.577,377.05C64.577,377.331 64.805,377.558 65.085,377.558L75.375,377.558C75.656,377.558 75.884,377.331 75.884,377.05L75.884,372.33C75.884,372.05 75.656,371.822 75.375,371.822Z" style="fill:white;"/>
            <path d="M66.85,372.315L66.85,377.065" style="fill:none;stroke:white;stroke-width:0.2px;"/>
        </g>
    </g>
</svg>
