<?xml version="1.0" encoding="UTF-8" standalone="no"?>
<!DOCTYPE svg PUBLIC "-//W3C//DTD SVG 1.1//EN" "http://www.w3.org/Graphics/SVG/1.1/DTD/svg11.dtd">
<svg width="100%" height="100%" viewBox="0 0 359 25" version="1.1" xmlns="http://www.w3.org/2000/svg" xmlns:xlink="http://www.w3.org/1999/xlink" xml:space="preserve" xmlns:serif="http://www.serif.com/" style="fill-rule:evenodd;clip-rule:evenodd;stroke-linecap:round;stroke-linejoin:round;stroke-miterlimit:1.5;">
    <g transform="matrix(1,0,0,1,392,-573)">
        <g transform="matrix(0.333333,0,0,0.333333,-399.596,473.004)">
            <g transform="matrix(1.28878,0,0,0.754393,-292.182,174.714)">
                <path d="M1079.82,214.267C1079.82,187.673 1067.19,166.082 1051.62,166.082L274.722,166.082C259.155,166.082 246.517,187.673 246.517,214.267C246.517,240.861 259.155,262.451 274.722,262.451L1051.62,262.451C1067.19,262.451 1079.82,240.861 1079.82,214.267Z" style="fill:url(#_Linear1);"/>
            </g>
            <g transform="matrix(1,0,0,1,199.225,10.0104)">
                <g transform="matrix(1.14486,0,0,1.14486,-8.91472,-47.4618)">
                    <circle cx="61.542" cy="327.65" r="18.284" style="fill:white;"/>
                </g>
                <g transform="matrix(1,0,0,0.644733,0,111.23)">
                    <path d="M61.542,313.089L61.542,341.762" style="fill:none;stroke:rgb(117,117,117);stroke-width:7.13px;"/>
                </g>
                <g transform="matrix(0.04121,0,0,0.0265695,59.0061,331.867)">
                    <path d="M61.542,313.089L61.542,341.762" style="fill:none;stroke:rgb(117,117,117);stroke-width:173.05px;"/>
                </g>
            </g>
            <g transform="matrix(1,0,0,1,192.907,4.28955)">
                <g transform="matrix(32,0,0,32,683.907,345.211)">
                </g>
                <text x="118.371px" y="345.211px" style="font-family:'HiraginoSans-W4', 'Hiragino Sans', sans-serif;font-size:32px;fill:white;">開催の近いチケットが2件あります！→</text>
            </g>
        </g>
    </g>
    <defs>
        <linearGradient id="_Linear1" x1="0" y1="0" x2="1" y2="0" gradientUnits="userSpaceOnUse" gradientTransform="matrix(833.307,0,0,1423.6,246.517,214.267)"><stop offset="0" style="stop-color:rgb(255,84,175);stop-opacity:1"/><stop offset="0.5" style="stop-color:rgb(255,90,85);stop-opacity:1"/><stop offset="1" style="stop-color:rgb(255,154,11);stop-opacity:1"/></linearGradient>
    </defs>
</svg>
